<svg width="183" height="41" viewBox="0 0 183 41" fill="none" xmlns="http://www.w3.org/2000/svg">
<path d="M133.868 37.2911C133.868 39.2684 132.26 40.8755 130.283 40.8766C128.307 40.8766 126.699 39.2684 126.699 37.2922C126.699 36.3342 127.072 35.4352 127.748 34.7594L130.283 32.3638L132.843 34.7817C133.495 35.4352 133.869 36.3353 133.869 37.2922L133.868 37.2911ZM92.2651 4.88915H85.3939V18.1731C85.0649 17.7337 84.8686 17.4772 84.6779 17.2173C81.7938 13.2816 78.9142 9.34242 76.0156 5.41891C75.8294 5.16797 75.4926 4.87354 75.2193 4.86685C73.2999 4.81889 71.3794 4.8412 69.4143 4.8412V30.5136H76.2955V16.7701C76.6614 17.2385 76.8588 17.4783 77.0417 17.7281C80.0105 21.7844 82.9738 25.8462 85.956 29.8924C86.1623 30.1723 86.5103 30.5236 86.8025 30.5225C88.8267 30.5091 90.4004 30.5225 92.2651 30.5225V4.88915ZM140.738 16.7969C141.049 17.2084 141.228 17.4393 141.4 17.6757C144.391 21.7565 147.375 25.8417 150.377 29.9136C150.57 30.1756 150.878 30.5147 151.143 30.5147H156.657V4.8925H149.757V18.0895C149.492 17.7504 149.36 17.5921 149.239 17.4259C146.319 13.4399 143.405 9.44949 140.474 5.47244C140.282 5.21147 139.965 4.87131 139.699 4.86462C137.755 4.8122 135.81 4.83673 133.862 4.83673V30.5158H140.738V16.798V16.7969ZM182.422 29.6325C179.781 25.7413 177.149 21.8446 174.487 17.969C174.131 17.4504 174.122 17.0991 174.479 16.5682C176.92 12.9347 179.321 9.27551 181.734 5.62411C181.887 5.39325 182.029 5.15459 182.238 4.82112C179.616 4.82112 177.162 4.83785 174.708 4.80774C174.162 4.80105 173.866 4.99064 173.584 5.44567C171.67 8.53831 169.726 11.612 167.79 14.6912C167.659 14.8987 167.506 15.0916 167.225 15.4853V4.88023H160.197V30.4779H167.295V19.3832C167.579 19.7925 167.752 20.0289 167.912 20.2732C169.988 23.4729 172.058 26.677 174.148 29.8678C174.324 30.1377 174.628 30.5113 174.878 30.5158C177.53 30.5225 180.174 30.5024 183.001 30.5024C182.73 30.082 182.59 29.8756 182.425 29.6325H182.422ZM38.9675 4.89696V30.5147H46.0907V21.529H54.3013V15.2868H46.1654V11.244H55.2493V4.89584H38.9675V4.89696ZM65.8723 4.91034H58.7903V30.5091H65.8723V4.91146V4.91034ZM123.121 4.88023C123.121 4.88023 123.107 17.5162 123.121 23.6402C123.122 23.9357 123.371 24.2982 123.603 24.5134C125.056 25.8618 129.404 29.763 130.24 30.5136C130.24 21.8569 130.283 13.4053 130.283 4.87912H123.121V4.88023ZM116.527 26.0558C114.083 29.1083 110.67 30.4054 106.847 30.5292C103.342 30.5292 95.9968 30.5526 95.8061 30.5292V4.8345H97.5849C100.605 4.8345 103.626 4.75978 106.643 4.85123C111.795 5.00737 115.97 7.06616 118.178 11.8808C120.451 16.8348 119.998 21.7208 116.526 26.0581L116.527 26.0558ZM114.218 16.4333C114.218 12.8354 111.29 9.90786 107.694 9.90786C104.096 9.90898 101.168 12.8354 101.168 16.4344C101.168 18.1765 101.847 19.8137 103.035 21.0037L107.693 25.4045L112.308 21.0438C113.54 19.8126 114.218 18.1765 114.217 16.4333H114.218ZM110.456 16.4333C110.456 14.9076 109.219 13.6708 107.694 13.6708C106.168 13.6708 104.931 14.9076 104.931 16.4333C104.931 17.959 106.167 19.1958 107.694 19.1958C109.221 19.1958 110.456 17.959 110.456 16.4333ZM17.3971 9.66473C16.1301 9.66473 15.1052 10.6908 15.1052 11.9555C15.1052 13.2202 16.1301 14.2474 17.3971 14.2474C18.664 14.2474 19.689 13.2213 19.689 11.9555C19.689 10.6897 18.6629 9.66473 17.3971 9.66473ZM35.4276 17.7159C35.4276 27.5983 27.5293 35.4007 17.5265 35.3984C7.86042 35.3962 -0.00780108 27.422 5.8045e-06 17.6356C0.00781269 7.92491 8.02325 -0.0358742 17.7573 -0.000185647C27.536 0.035503 35.4265 7.94722 35.4265 17.7159H35.4276ZM18.2413 18.5992L21.2247 15.7798C22.2463 14.7593 22.8095 13.4009 22.8084 11.9555C22.8084 8.97104 20.3804 6.5431 17.3971 6.5431C14.4137 6.5431 11.9858 8.97104 11.9858 11.9555C11.9858 13.4009 12.5479 14.7582 13.5695 15.7798L16.5528 18.5992C16.7402 18.7765 16.8461 19.023 16.8461 19.2806V22.8483C16.8461 27.5436 16.8495 32.3694 16.8495 32.3694L17.3971 33.1746L17.9447 34.0378V33.1188C17.9447 31.0534 17.9469 27.5436 17.948 22.8483V19.2806C17.948 19.023 18.054 18.7765 18.2413 18.5992ZM24.4601 3.68578C24.4601 3.11699 24.3463 2.59728 23.4073 2.66754C23.1195 2.68873 22.8396 2.86048 22.5753 2.98762C19.5239 4.46424 16.4313 5.63527 12.6605 4.71071C11.3981 4.40178 10.6252 5.06425 10.6218 6.10703C10.614 8.74352 10.1088 11.5495 10.72 14.1403C10.817 14.553 11.2798 15.5199 11.5977 15.8924C13.3208 17.9144 15.2625 18.7129 15.9907 19.0809C15.9785 19.062 15.9628 19.0397 15.9484 19.0185L13.0598 16.2883C11.901 15.1307 11.2631 13.5916 11.2642 11.9533C11.2642 8.57177 14.0156 5.8204 17.3971 5.8204C20.7786 5.8204 23.5311 8.57177 23.5311 11.9544C23.5311 13.5916 22.8942 15.1307 21.7355 16.2883L18.7834 19.0787C18.8425 19.0464 18.8994 19.014 18.9573 18.9817C18.9317 19.0163 18.9094 19.0497 18.8893 19.0798C19.6176 18.7118 21.5593 17.9133 23.2824 15.8913C23.6002 15.5188 24.0619 14.5518 24.1601 14.1392C24.4121 13.073 24.4735 11.97 24.459 10.857C24.459 10.8224 24.4601 10.7934 24.4601 10.7688C24.4601 8.40671 24.4601 6.04569 24.4612 3.68355L24.4601 3.68578Z" fill="#2D2D31"/>
</svg>
